<svg width="100%" height="100%" viewBox="0 0 800 800" xmlns="http://www.w3.org/2000/svg" preserveAspectRatio="xMidYMid slice">
    <defs>
        <linearGradient id="grad1" x1="0%" y1="0%" x2="100%" y2="100%">
            <stop offset="0%" style="stop-color: hsl(var(--primary)); stop-opacity: 0.1;" />
            <stop offset="100%" style="stop-color: hsl(var(--secondary)); stop-opacity: 0.2;" />
        </linearGradient>
    </defs>
    <rect width="800" height="800" fill="url(#grad1)" />
    <g transform="translate(400, 400) scale(0.8)">
        <g transform="translate(-150, 50)">
            <circle cx="0" cy="-60" r="30" fill="hsl(var(--primary))" opacity="0.8"/>
            <path d="M -50 0 C -50 60, 50 60, 50 0 Z" fill="hsl(var(--primary))" opacity="0.8"/>
            <rect x="-70" y="30" width="140" height="20" rx="10" fill="#fff" />
        </g>
        <g transform="translate(100, 120)">
            <path d="M-120 -10C-120 -60 0 -80 0 -10C0 -80 120 -60 120 -10 L120 80 C120 100 0 120 0 80 C0 120 -120 100 -120 80Z" fill="#fff" stroke="hsl(var(--border))" strokeWidth="5"/>
            <line x1="-100" y1="10" x2="100" y2="10" stroke="hsl(var(--border))" strokeWidth="4" strokeDasharray="8 8"/>
            <line x1="-100" y1="30" x2="100" y2="30" stroke="hsl(var(--border))" strokeWidth="4" strokeDasharray="8 8"/>
            <line x1="-100" y1="50" x2="80" y2="50" stroke="hsl(var(--border))" strokeWidth="4" strokeDasharray="8 8"/>
        </g>
        <circle cx="-250" cy="-150" r="20" fill="hsl(var(--primary))" opacity="0.3"/>
        <path d="M 200 -200 L 250 -250 L 300 -200 Z" fill="hsl(var(--primary))" opacity="0.4" />
        <rect x="220" y="50" width="80" height="80" rx="40" fill="hsl(var(--secondary))" opacity="0.5" transform="rotate(45 260 90)"/>
        <g transform="translate(-200, 200)">
             <path d="M0,0 a30,30 0 0,1 60,0 a30,30 0 0,1 60,0" fill="none" stroke="hsl(var(--primary))" strokeWidth="6" opacity="0.2"/>
        </g>
    </g>
</svg>